<?xml version="1.0" encoding="utf-8"?>
<!-- Generator: Adobe Illustrator 16.0.0, SVG Export Plug-In . SVG Version: 6.00 Build 0)  -->
<!DOCTYPE svg PUBLIC "-//W3C//DTD SVG 1.1//EN" "http://www.w3.org/Graphics/SVG/1.1/DTD/svg11.dtd">
<svg version="1.1" id="Ebene_1" xmlns="http://www.w3.org/2000/svg" xmlns:xlink="http://www.w3.org/1999/xlink" x="0px" y="0px"
	 width="113.391px" height="113.391px" viewBox="0 0 113.391 113.391" enable-background="new 0 0 113.391 113.391"
	 xml:space="preserve">
<circle fill="#FFFFFF" stroke="#FBBB0F" stroke-width="10" stroke-miterlimit="10" cx="55.958" cy="56.956" r="35.672"/>
<g opacity="0.4">
	
		<linearGradient id="SVGID_1_" gradientUnits="userSpaceOnUse" x1="269.2727" y1="-298.8909" x2="351.967" y2="-298.8909" gradientTransform="matrix(1 0 0 -1 -240.9648 -251.2642)">
		<stop  offset="0" style="stop-color:#538132"/>
		<stop  offset="0.0198" style="stop-color:#538132"/>
		<stop  offset="1" style="stop-color:#74A029"/>
	</linearGradient>
	<path fill="url(#SVGID_1_)" d="M54.727,83.507c-0.142,0-0.283-0.006-0.426-0.018c-2.194-0.188-4.009-1.787-4.467-3.941
		c-3.486-16.4-19.513-29.528-19.673-29.659c-2.146-1.737-2.479-4.886-0.741-7.032c1.737-2.146,4.885-2.478,7.032-0.74
		c0.604,0.488,11.892,9.739,18.778,23.258c8.171-16.356,25.582-45.451,49.18-53.366c2.618-0.88,5.451,0.532,6.33,3.15
		c0.878,2.617-0.532,5.452-3.15,6.33c-28.254,9.479-48.023,58.375-48.22,58.868C58.607,82.27,56.758,83.507,54.727,83.507z"/>
</g>
</svg>
